<?xml version="1.0" encoding="utf-8" ?>
<svg baseProfile="full" fill="white" fill-opacity="0" height="100%" version="1.1" width="100%" xmlns="http://www.w3.org/2000/svg" xmlns:ev="http://www.w3.org/2001/xml-events" xmlns:xlink="http://www.w3.org/1999/xlink"><defs /><circle cx="400" cy="400" fill="white" fill-opacity="0" id="boundary_circle" r="250" stroke="black" stroke-width="1" /><g id="triangle" stroke="red" stroke-width="4"><line x1="400" x2="650" y1="400" y2="400" /><line x1="400" x2="602.2542485937369" y1="400" y2="546.9463130731183" /><path d="m 509.97030991231605 175.48601171020735 A 510.396825444993 510.396825444993 0 0,0 509.97030991231605 624.5139882897927" id="triangle_side_n_5_clockwise" /><line x1="400" x2="650" y1="400" y2="400" /><line x1="400" x2="616.5063509461097" y1="400" y2="525.0" /><path d="m 586.3389981249825 233.33333333333337 A 223.60679774997888 223.60679774997888 0 0,0 586.3389981249825 566.6666666666666" id="triangle_side_n_6_clockwise" /><line x1="400" x2="650" y1="400" y2="400" /><line x1="400" x2="625.2422169756048" y1="400" y2="508.4709347793895" /><path d="m 611.2909324973133 266.37312454294306 A 158.10767868464507 158.10767868464507 0 0,0 611.2909324973133 533.6268754570569" id="triangle_side_n_7_clockwise" /><line x1="400" x2="650" y1="400" y2="400" /><line x1="400" x2="630.9698831278217" y1="400" y2="495.67085809127246" /><path d="m 623.4655836509465 287.9146177080087 A 125.3944572367224 125.3944572367224 0 0,0 623.4655836509465 512.0853822919913" id="triangle_side_n_8_clockwise" /><line x1="400" x2="650" y1="400" y2="400" /><line x1="400" x2="634.9231551964771" y1="400" y2="485.50503583141716" /><path d="m 630.4853872916764 303.1677417127642 A 105.03079981020198 105.03079981020198 0 0,0 630.4853872916764 496.8322582872358" id="triangle_side_n_9_clockwise" /><line x1="400" x2="650" y1="400" y2="400" /><line x1="400" x2="637.7641290737884" y1="400" y2="477.25424859373686" /><path d="m 634.9576521683944 314.5898033750316 A 90.87828789223131 90.87828789223131 0 0,0 634.9576521683944 485.4101966249684" id="triangle_side_n_10_clockwise" /></g><circle cx="968.3352174767341" cy="400.0" r="510.396825444993" stroke="green" stroke-width="1" /><circle cx="735.4101966249684" cy="400.0" r="223.60679774997888" stroke="green" stroke-width="1" /><circle cx="695.8006728509031" cy="400.0" r="158.10767868464507" stroke="green" stroke-width="1" /><circle cx="679.6851263576457" cy="400.0" r="125.3944572367224" stroke="green" stroke-width="1" /><circle cx="671.1668654330222" cy="400.00000000000006" r="105.03079981020198" stroke="green" stroke-width="1" /><circle cx="666.0053819196584" cy="400.00000000000006" r="90.87828789223131" stroke="green" stroke-width="1" /></svg>