<?xml version="1.0" encoding="utf-8" ?>
<svg baseProfile="full" fill="white" fill-opacity="0" height="100%" version="1.1" width="100%" xmlns="http://www.w3.org/2000/svg" xmlns:ev="http://www.w3.org/2001/xml-events" xmlns:xlink="http://www.w3.org/1999/xlink"><defs /><circle cx="400" cy="400" fill="white" fill-opacity="0" id="boundary_circle" r="250" stroke="black" stroke-width="1" /><g id="rotated_triangle" stroke="red" stroke-width="4"><line x1="400" x2="512.0719340210068" y1="400" y2="335.29523872436977" /><path d="m 512.0719340210068 335.29523872436977 A 249.99999999999966 249.99999999999966 0 0,0 503.55339059327383 400" /><line x1="400" x2="503.55339059327383" y1="400" y2="400" /><line x1="400.0" x2="512.0719340210068" y1="400.0" y2="335.29523872436977" /><path d="m 512.0719340210068 335.29523872436977 A 249.99999999999963 249.99999999999963 0 0,1 451.77669529663694 310.32013309821235" /><line x1="400.0" x2="451.77669529663694" y1="400.0" y2="310.32013309821235" /><path d="m 488.38834764831853 246.90689107605132 A 176.77669529663643 176.77669529663643 0 0,0 512.0719340210068 335.29523872436977" /><path d="m 512.0719340210068 335.29523872436977 A 249.99999999999952 249.99999999999952 0 0,1 451.77669529663694 310.3201330982123" /><line x1="488.38834764831853" x2="451.77669529663694" y1="246.90689107605132" y2="310.3201330982123" /><path d="m 488.38834764831864 246.90689107605132 A 176.77669529663606 176.77669529663606 0 0,0 512.0719340210069 335.2952387243697" /><path d="m 512.0719340210069 335.2952387243697 A 249.99999999999864 249.99999999999864 0 0,1 530.6019374818709 286.8954043572328" /><path d="m 488.38834764831864 246.90689107605132 A 102.0620726159656 102.0620726159656 0 0,0 530.6019374818709 286.8954043572328" /><line x1="576.7766952966368" x2="512.0719340210069" y1="297.93792738403397" y2="335.29523872436965" /><path d="m 512.0719340210069 335.29523872436965 A 249.99999999999872 249.99999999999872 0 0,1 530.6019374818708 286.8954043572327" /><path d="m 576.7766952966368 297.93792738403397 A 102.06207261596565 102.06207261596565 0 0,1 530.6019374818708 286.8954043572327" /><line x1="576.7766952966368" x2="512.0719340210069" y1="297.93792738403397" y2="335.29523872436965" /><path d="m 512.0719340210069 335.29523872436965 A 249.99999999999986 249.99999999999986 0 0,0 563.2524218523386 343.44770217861617" /><path d="m 576.7766952966368 297.93792738403397 A 102.06207261596496 102.06207261596496 0 0,0 563.2524218523386 343.44770217861617" /><path d="m 576.7766952966372 399.9999999999996 A 176.7766952966365 176.7766952966365 0 0,1 512.0719340210068 335.2952387243697" /><path d="m 512.0719340210068 335.2952387243697 A 250.00000000000034 250.00000000000034 0 0,0 563.2524218523386 343.44770217861617" /><path d="m 576.7766952966372 399.9999999999996 A 102.06207261596536 102.06207261596536 0 0,1 563.2524218523386 343.44770217861617" /><path d="m 576.7766952966372 399.9999999999996 A 176.7766952966368 176.7766952966368 0 0,1 512.0719340210067 335.2952387243697" /><path d="m 512.0719340210067 335.2952387243697 A 249.99999999999898 249.99999999999898 0 0,0 503.553390593274 400.0000000000001" /><line x1="576.7766952966372" x2="503.553390593274" y1="399.9999999999996" y2="400.0000000000001" /><line x1="400" x2="512.0719340210068" y1="400" y2="335.29523872436977" /><path d="m 512.0719340210068 335.29523872436977 A 249.99999999999966 249.99999999999966 0 0,0 503.55339059327383 400" /><line x1="400" x2="503.55339059327383" y1="400" y2="400" /><line x1="400.0" x2="512.0719340210068" y1="400.0" y2="335.29523872436977" /><path d="m 512.0719340210068 335.29523872436977 A 249.99999999999963 249.99999999999963 0 0,1 451.77669529663694 310.32013309821235" /><line x1="400.0" x2="451.77669529663694" y1="400.0" y2="310.32013309821235" /><line x1="400.0" x2="400.00000000000006" y1="400.0" y2="270.5904774487395" /><path d="m 400.00000000000006 270.5904774487395 A 249.99999999999957 249.99999999999957 0 0,0 451.77669529663694 310.3201330982123" /><line x1="400.0" x2="451.77669529663694" y1="400.0" y2="310.3201330982123" /><line x1="400.0" x2="399.99999999999994" y1="400.0" y2="270.5904774487395" /><path d="m 399.99999999999994 270.5904774487395 A 249.99999999999957 249.99999999999957 0 0,1 348.22330470336306 310.3201330982123" /><line x1="400.0" x2="348.22330470336306" y1="400.0" y2="310.3201330982123" /><line x1="400.0" x2="287.9280659789931" y1="400.0" y2="335.2952387243697" /><path d="m 287.9280659789931 335.2952387243697 A 249.99999999999935 249.99999999999935 0 0,0 348.22330470336306 310.3201330982123" /><line x1="400.0" x2="348.22330470336306" y1="400.0" y2="310.3201330982123" /><line x1="400.0" x2="287.9280659789932" y1="400.0" y2="335.2952387243697" /><path d="m 287.9280659789932 335.2952387243697 A 249.9999999999998 249.9999999999998 0 0,1 296.44660940672617 400.0" /><line x1="400.0" x2="296.44660940672617" y1="400.0" y2="400.0" /><line x1="400.0" x2="287.9280659789932" y1="400.0" y2="464.70476127563023" /><path d="m 287.9280659789932 464.70476127563023 A 249.99999999999952 249.99999999999952 0 0,0 296.44660940672617 400.0" /><line x1="400.0" x2="296.44660940672617" y1="400.0" y2="400.0" /><line x1="400.0" x2="287.9280659789932" y1="400.0" y2="464.70476127563023" /><path d="m 287.9280659789932 464.70476127563023 A 249.9999999999995 249.9999999999995 0 0,1 348.22330470336306 489.67986690178765" /><line x1="400.0" x2="348.22330470336306" y1="400.0" y2="489.67986690178765" /><line x1="400.0" x2="400.0" y1="400.0" y2="529.4095225512606" /><path d="m 400.0 529.4095225512606 A 249.9999999999996 249.9999999999996 0 0,0 348.22330470336306 489.6798669017877" /><line x1="400.0" x2="348.22330470336306" y1="400.0" y2="489.6798669017877" /><line x1="400.0" x2="400.0" y1="400.0" y2="529.4095225512606" /><path d="m 400.0 529.4095225512606 A 249.9999999999996 249.9999999999996 0 0,1 451.77669529663694 489.6798669017877" /><line x1="400.0" x2="451.77669529663694" y1="400.0" y2="489.6798669017877" /><line x1="400.0" x2="512.0719340210069" y1="400.0" y2="464.7047612756303" /><path d="m 512.0719340210069 464.7047612756303 A 249.99999999999955 249.99999999999955 0 0,0 451.77669529663694 489.6798669017877" /><line x1="400.0" x2="451.77669529663694" y1="400.0" y2="489.6798669017877" /><line x1="400.0" x2="512.0719340210069" y1="400.0" y2="464.7047612756303" /><path d="m 512.0719340210069 464.7047612756303 A 249.99999999999955 249.99999999999955 0 0,1 503.5533905932739 400.0" /><line x1="400.0" x2="503.5533905932739" y1="400.0" y2="400.0" /></g></svg>