<?xml version="1.0" encoding="utf-8" ?>
<svg baseProfile="full" fill="white" fill-opacity="0" height="100%" version="1.1" width="100%" xmlns="http://www.w3.org/2000/svg" xmlns:ev="http://www.w3.org/2001/xml-events" xmlns:xlink="http://www.w3.org/1999/xlink"><defs /><circle cx="400" cy="400" fill="white" fill-opacity="0" id="boundary_circle" r="250" stroke="black" stroke-width="1" /><g id="rotated_triangle" stroke="red" stroke-width="4"><line x1="400" x2="523.4707628942313" y1="400" y2="328.7141218059671" /><path d="m 523.4707628942313 328.7141218059671 A 223.6067977499789 223.6067977499789 0 0,0 511.80339887498945 400.0" /><line x1="400" x2="511.80339887498945" y1="400" y2="400.0" /><line x1="400.0" x2="523.4707628942313" y1="400.0" y2="328.7141218059671" /><path d="m 523.4707628942313 328.7141218059671 A 223.60679774997908 223.60679774997908 0 0,1 455.90169943749476 303.1754163448146" /><line x1="400.0" x2="455.90169943749476" y1="400.0" y2="303.1754163448146" /><path d="m 493.1694990624913 238.6256939080243 A 149.07119849998585 149.07119849998585 0 0,0 523.4707628942314 328.714121805967" /><path d="m 523.4707628942314 328.714121805967 A 223.6067977499788 223.6067977499788 0 0,1 455.9016994374948 303.1754163448145" /><line x1="493.1694990624913" x2="455.9016994374948" y1="238.6256939080243" y2="303.1754163448145" /><path d="m 493.1694990624913 238.6256939080243 A 149.0711984999855 149.0711984999855 0 0,0 523.4707628942315 328.7141218059669" /><path d="m 523.4707628942315 328.7141218059669 A 178.88543819998273 178.88543819998273 0 0,1 535.7612700624873 275.5112495861901" /><path d="m 493.1694990624913 238.6256939080243 A 86.06629658238694 86.06629658238694 0 0,0 535.7612700624873 275.5112495861901" /><path d="m 578.7021539395323 280.95338075182116 A 596.284793999951 596.284793999951 0 0,0 523.4707628942314 328.7141218059669" /><path d="m 523.4707628942314 328.7141218059669 A 178.88543819998327 178.88543819998327 0 0,1 535.7612700624873 275.5112495861901" /><path d="m 578.7021539395323 280.95338075182116 A 86.06629658238658 86.06629658238658 0 0,1 535.7612700624873 275.5112495861901" /><path d="m 578.7021539395323 280.9533807518211 A 596.2847939999629 596.2847939999629 0 0,0 523.4707628942313 328.7141218059667" /><path d="m 523.4707628942313 328.7141218059667 A 325.24625127269286 325.24625127269286 0 0,0 574.918220820548 321.9156583425922" /><path d="m 578.7021539395323 280.9533807518211 A 68.85303726591013 68.85303726591013 0 0,0 574.918220820548 321.9156583425922" /><path d="m 599.648926562481 361.577546168577 A 159.00927839998454 159.00927839998454 0 0,1 523.4707628942313 328.7141218059667" /><path d="m 523.4707628942313 328.7141218059667 A 325.24625127269286 325.24625127269286 0 0,0 574.918220820548 321.9156583425922" /><path d="m 599.648926562481 361.577546168577 A 68.85303726590958 68.85303726590958 0 0,1 574.918220820548 321.9156583425922" /><path d="m 599.648926562481 361.577546168577 A 159.00927839998474 159.00927839998474 0 0,1 523.4707628942311 328.7141218059668" /><path d="m 523.4707628942311 328.7141218059668 A 157.26192369229318 157.26192369229318 0 0,0 547.8918377523594 388.96935122915585" /><path d="m 599.648926562481 361.577546168577 A 275.4121490636407 275.4121490636407 0 0,0 547.8918377523594 388.96935122915585" /></g><circle cx="735.4101966249684" cy="400.0000000000001" r="223.6067977499789" stroke="green" stroke-width="1" /><circle cx="567.7050983124843" cy="109.52624903444365" r="223.60679774997908" stroke="green" stroke-width="1" /><circle cx="642.2406975624772" cy="238.62569390802426" r="149.07119849998585" stroke="green" stroke-width="1" /><circle cx="567.7050983124843" cy="109.52624903444388" r="223.6067977499788" stroke="green" stroke-width="1" /><circle cx="642.2406975624768" cy="238.62569390802423" r="149.0711984999855" stroke="green" stroke-width="1" /><circle cx="701.8691769624712" cy="341.9052498068885" r="178.88543819998273" stroke="green" stroke-width="1" /><circle cx="567.7050983124841" cy="195.59254561683085" r="86.06629658238694" stroke="green" stroke-width="1" /><circle cx="940.383094562453" cy="755.0234734023525" r="596.284793999951" stroke="green" stroke-width="1" /><circle cx="701.8691769624716" cy="341.9052498068886" r="178.88543819998327" stroke="green" stroke-width="1" /><circle cx="567.7050983124843" cy="195.59254561683125" r="86.06629658238658" stroke="green" stroke-width="1" /><circle cx="940.3830945624601" cy="755.023473402362" r="596.2847939999629" stroke="green" stroke-width="1" /><circle cx="506.7214261988547" cy="3.8994305015175996" r="325.24625127269286" stroke="green" stroke-width="1" /><circle cx="642.2406975624773" cy="307.47873117393374" r="68.85303726591013" stroke="green" stroke-width="1" /><circle cx="622.3645377624788" cy="204.19917527506976" r="159.00927839998454" stroke="green" stroke-width="1" /><circle cx="506.7214261988547" cy="3.8994305015175996" r="325.24625127269286" stroke="green" stroke-width="1" /><circle cx="642.2406975624771" cy="307.4787311739338" r="68.85303726590958" stroke="green" stroke-width="1" /><circle cx="622.3645377624789" cy="204.19917527506954" r="159.00927839998474" stroke="green" stroke-width="1" /><circle cx="678.2798884086277" cy="301.0474035172277" r="157.26192369229318" stroke="green" stroke-width="1" /><circle cx="701.8691769624722" cy="617.3173988705291" r="275.4121490636407" stroke="green" stroke-width="1" /></svg>